Coordinates
version=1
nRows=13
nColumns=18
inDegrees=yes

Units are S.I. units (second, meters, Newtons, ...)
If the header above contains a line with 'inDegrees', this indicates whether rotational values are in degrees (yes) or radians (no).

endheader
time	ground_thorax_rot_x	ground_thorax_rot_y	ground_thorax_rot_z	ground_thorax_tx	ground_thorax_ty	ground_thorax_tz	clav_prot	clav_elev	scapula_abduction	scapula_elevation	scapula_upward_rot	scapula_winging	plane_elv	shoulder_elv	axial_rot	elbow_flexion	pro_sup
      0.00000000	      2.23223245	    -17.04565110	    -19.38551170	     -0.01626336	     -0.01464504	      0.03662242	    -23.64155607	    -13.72562974	    -17.83449764	    -10.34659914	      9.92571857	     33.43208119	      8.17408400	     33.09942628	     -2.36103695	      0.00156114	     63.92270238
      0.02000000	      2.16548122	    -17.09716858	    -19.41408092	     -0.01612311	     -0.01476938	      0.03666445	    -23.58385279	    -13.65838544	    -17.78374065	    -10.29065235	      9.90940430	     33.39152610	      8.39915766	     33.16062745	     -2.33526613	      0.00156114	     63.92270238
      0.04000000	      2.29599530	    -16.92011588	    -19.28522796	     -0.01599759	     -0.01426040	      0.03653298	    -23.77252413	    -13.76625377	    -17.99330592	    -10.39262374	      9.96423673	     33.47633886	      8.00135116	     33.18857734	     -2.45452285	      0.00156114	     63.92270238
      0.06000000	      2.21946369	    -16.97420293	    -19.31583634	     -0.01586229	     -0.01440820	      0.03657780	    -23.70911382	    -13.69668314	    -17.93889141	    -10.33292594	      9.94087497	     33.43463655	      8.24162021	     33.24400301	     -2.42522414	      0.00156114	     63.92270238
      0.08000000	      2.15672085	    -17.02762838	    -19.34896367	     -0.01571406	     -0.01453874	      0.03663362	    -23.65234271	    -13.63189728	    -17.88925742	    -10.27848962	      9.92327074	     33.39569457	      8.46724535	     33.30383899	     -2.39834968	      0.00156114	     63.92270238
      0.10000000	      2.28363605	    -16.93235426	    -19.33808669	     -0.01557607	     -0.01425221	      0.03658159	    -23.77198007	    -13.71753772	    -17.99371064	    -10.36528959	      9.99662832	     33.44899684	      8.28008437	     33.40181337	     -2.45950095	      0.00156114	     63.92270238
      0.12000000	      2.20774786	    -16.97537113	    -19.35862104	     -0.01543841	     -0.01438887	      0.03664491	    -23.70726467	    -13.64782063	    -17.94017592	    -10.30417816	      9.96825000	     33.40798136	      8.51527167	     33.44304168	     -2.43225649	      0.00156114	     63.92270238
      0.14000000	      2.15262229	    -16.81826476	    -19.26612175	     -0.01527749	     -0.01398432	      0.03662922	    -23.85127260	    -13.86353179	    -18.14655491	    -10.43466856	      9.83249199	     33.56491945	      8.17229961	     33.46865666	     -2.57255268	      0.00156114	     63.92270238
      0.16000000	      2.09436172	    -16.85600523	    -19.28922802	     -0.01515429	     -0.01413477	      0.03672421	    -23.78343981	    -13.79626714	    -18.08547384	    -10.37596506	      9.80759442	     33.52318955	      8.41359816	     33.50823632	     -2.54234398	      0.00156114	     63.92270238
      0.18000000	      2.11207995	    -16.75963143	    -19.23255085	     -0.01504161	     -0.01386949	      0.03670397	    -23.82745604	    -13.88722619	    -18.11187660	    -10.44593603	      9.81369388	     33.57250499	      8.19657561	     33.51592999	     -2.64271251	      0.00156114	     63.92270238
      0.20000000	      2.06378323	    -16.78773139	    -19.25189351	     -0.01493331	     -0.01402587	      0.03684344	    -23.75729404	    -13.82420636	    -18.04675678	    -10.38968554	      9.78676586	     33.53233326	      8.44138111	     33.54856748	     -2.61189249	      0.00156114	     63.92270238
      0.22000000	      2.02322105	    -16.80820001	    -19.27132090	     -0.01481742	     -0.01416565	      0.03699984	    -23.69073348	    -13.76699623	    -17.98238067	    -10.33887485	      9.76396621	     33.49485454	      8.67280197	     33.58301232	     -2.58402269	      0.00156114	     63.92270238
      0.24000000	      2.07742963	    -16.65924107	    -19.30047237	     -0.01474142	     -0.01392850	      0.03696517	    -23.73222231	    -13.91188985	    -17.96153384	    -10.45773414	      9.80942469	     33.55873463	      8.42012979	     33.63966440	     -2.68994370	      0.00156114	     63.92270238
